<?xml version="1.0" encoding="utf-8"?>
<!-- Generator: Adobe Illustrator 26.3.1, SVG Export Plug-In . SVG Version: 6.00 Build 0)  -->
<svg version="1.1" id="Capa_1" xmlns="http://www.w3.org/2000/svg" xmlns:xlink="http://www.w3.org/1999/xlink" x="0px" y="0px"
	 viewBox="0 0 600 600" style="enable-background:new 0 0 600 600;" xml:space="preserve">
<style type="text/css">
	.st0{opacity:0.31;}
	.st1{fill:#D8D3CF;}
	.st2{fill:#4B8375;}
	.st3{fill:#B2CDC1;}
	.st4{opacity:0.51;}
	.st5{fill:none;stroke:#B2CDC1;stroke-width:0.6214;stroke-miterlimit:10;}
	.st6{fill:none;stroke:#B2CDC1;stroke-width:0.4903;stroke-miterlimit:10;}
	.st7{fill:#FFA288;}
	.st8{fill:#3E1C1A;}
	.st9{fill:#D66956;}
	.st10{opacity:0.63;fill:#E7786B;}
	.st11{fill:none;stroke:#000000;stroke-width:0.4136;stroke-linecap:round;stroke-miterlimit:10;}
	.st12{opacity:0.58;fill:#4B8375;}
	.st13{opacity:0.58;}
	.st14{fill:#FFE8D8;}
	.st15{opacity:0.38;fill:#D8C7BC;}
	.st16{fill:#FFFFFF;}
	.st17{opacity:0.28;fill:#D8C7BC;}
	.st18{fill:none;stroke:#FFFFFF;stroke-width:0.8271;stroke-miterlimit:10;}
	.st19{fill:#B26B56;}
	.st20{fill:#8E4038;}
	.st21{fill:#917900;}
	.st22{fill:none;stroke:#000000;stroke-width:0.396;stroke-linecap:round;stroke-miterlimit:10;}
	.st23{fill:#D3CFBE;}
	.st24{fill:#F7F3E2;}
</style>
<g>
	<g>
		<g class="st0">
			<g>
				<path class="st1" d="M131.21,425.1c11.37,11.22,22.85,22.52,36.26,31.18c13.42,8.67,29.09,14.62,45.05,13.97
					c12.86-0.53,25.16-5.27,36.78-10.78c8.78-4.16,17.47-8.91,24.32-15.8c17.28-17.37,18.81-48,3.34-67
					c-11.09-13.62-28.56-20.61-40.43-33.56c-20.32-22.16-20.67-57.42-40.87-79.69c-13.44-14.82-35.08-21.67-54.6-17.28
					c-8,1.8-15.92,5.62-20.64,12.33c-7.65,10.88-4.92,25.67-1.68,38.56c3.25,12.89,6.49,27.43-0.45,38.77
					c-6.71,10.97-21.4,15.87-26.26,27.78c-4.16,10.19,0.41,21.65,5.01,31.65c3.67,7.98,8.2,16.69,16.49,19.61
					c9.09,3.19,19.23-1.87,28.66,0.07"/>
			</g>
			<g>
				<path class="st1" d="M256.84,343.13c-4.4-3.78-8.49-8.27-10.18-13.83c-1.68-5.55-0.37-12.33,4.35-15.71
					c6.17-4.41,15.16-1.27,20.45,4.17c4.48,4.61,7.46,11.23,5.99,17.49c-1.48,6.26-8.53,11.18-14.54,8.87"/>
			</g>
		</g>
		<g>
			<polygon class="st2" points="263.27,478.08 76.24,478.08 101.54,439.58 237.97,439.58 			"/>
			<g>
				<g>
					<g>
						<g>
							<path class="st3" d="M98,423.66c-10.01-5.33-15.44-11.94-19-22.71c-0.84-2.55-1.3-5.76,0.67-7.59
								c2.11-1.97,5.53-1.01,8.07,0.35c4.66,2.5,8.76,6.04,11.93,10.28c4.07,5.46,7.48,12.69,14.18,13.88
								c0.61,0.11,1.28,0.15,1.82-0.15c1.64-0.91,0.58-3.38-0.46-4.94c-1.9-2.86-3.14-6.16-3.59-9.57
								c-0.08-0.62-0.13-1.27,0.11-1.84c0.36-0.83,1.26-1.29,2.14-1.48c3.21-0.69,6.34,1.31,8.89,3.37
								c6.5,5.26,15.54,13.98,20.01,21.04"/>
						</g>
						<g>
							<g>
								<path class="st3" d="M164.34,364.2c-9.23-2.82-17.54-8.58-23.4-16.24c-2.8-3.65-5.1-7.9-5.39-12.49
									c-0.16-2.58,0.83-5.74,3.37-6.21c1.84-0.34,3.55,0.92,4.95,2.16c9.9,8.77,17.32,20.3,21.2,32.95"/>
							</g>
							<g>
								<path class="st3" d="M110.32,376.36c-4.75-0.97-9.55-1.98-13.87-4.18c-4.31-2.2-8.15-5.78-9.58-10.41
									c-0.57-1.83-0.69-3.97,0.41-5.54c1.4-1.97,4.2-2.32,6.59-1.99c5.07,0.71,9.67,3.7,12.86,7.71
									c3.19,4.01,5.03,8.96,5.85,14.02"/>
							</g>
							<g>
								<path class="st3" d="M117.76,379.23c-1.39-2.59-2.24-5.43-2.85-8.31c-0.82-3.9-1.09-8.3,1.24-11.52
									c0.7-0.97,1.72-1.82,2.92-1.86c0.71-0.02,1.41,0.25,2.03,0.6c2.55,1.41,4.32,4.15,4.56,7.06c0.22,2.67-0.77,5.31-2.11,7.64
									c-1.34,2.33-3.03,4.43-4.39,6.75"/>
							</g>
							<g>
								<path class="st3" d="M124.89,386.46c-3.02-0.7-6.07-1.41-9.17-1.44c-3.1-0.03-6.3,0.66-8.78,2.52
									c-0.46,0.34-0.91,0.77-1.01,1.33c-0.1,0.54,0.17,1.09,0.5,1.53c1.16,1.54,3.15,2.29,5.08,2.34
									c1.93,0.04,3.81-0.53,5.61-1.23c2.43-0.94,4.91-2.23,6.23-4.48"/>
							</g>
							<g>
								<path class="st3" d="M135.8,394.48c-0.96-2.79-1.93-5.61-2.2-8.55c-0.27-2.94,0.22-6.05,1.95-8.44
									c0.22-0.31,0.49-0.62,0.85-0.73c0.44-0.14,0.91,0.04,1.3,0.27c1.63,0.94,2.62,2.72,3.14,4.53c1.32,4.56,0,9.78-3.32,13.17"
									/>
							</g>
							<g>
								<g>
									<path class="st3" d="M93.65,359.88c1.47,5.9,7.23,9.52,11.81,12.93c5.12,3.82,10.34,7.49,15.54,11.2
										c10.27,7.32,20.54,14.8,29.5,23.72c5.02,5,9.58,10.45,13.4,16.43c0.38,0.59,1.33,0.04,0.95-0.55
										c-13.51-21.11-35.28-34.55-55.12-49c-2.87-2.09-5.75-4.18-8.52-6.41c-2.84-2.29-5.59-4.94-6.5-8.6
										C94.54,358.9,93.48,359.19,93.65,359.88L93.65,359.88z"/>
								</g>
							</g>
						</g>
					</g>
					<g>
						<g>
							<path class="st3" d="M114.31,411.31c1-3.82,4.18-7.11,7.92-8.45c-2.45-1.9-5.37-3.6-8.35-2.95
								c-0.88,0.19-1.79,0.65-2.14,1.48c-0.25,0.57-0.19,1.22-0.11,1.83C111.99,406.05,112.92,408.81,114.31,411.31z"/>
						</g>
						<g>
							<path class="st3" d="M97.55,419.89c-3.68-4.19-7.29-8.64-10.03-13.51c-1.8-3.21-3.8-7.35-2.57-11.1
								c0.3-0.91,0.74-1.66,1.27-2.27c-2.27-0.91-4.85-1.24-6.56,0.36c-1.97,1.83-1.51,5.04-0.67,7.59
								c3.56,10.77,8.99,17.38,19,22.71l2.95,0.04C99.77,422.44,98.64,421.13,97.55,419.89z"/>
						</g>
						<g>
							<g>
								<path class="st3" d="M158.72,352.21c1.18,1.73,2.45,3.4,3.75,5.04c-2.28-5.34-5.2-10.4-8.68-15.05
									C153.3,344.81,157.77,350.81,158.72,352.21z"/>
							</g>
							<g>
								<path class="st3" d="M141.24,342.71c-0.8-4.4,1.1-7.87,4.11-9.95c-0.49-0.46-0.98-0.91-1.47-1.35
									c-1.4-1.24-3.11-2.5-4.95-2.16c-2.54,0.47-3.53,3.63-3.37,6.21c0.29,4.59,2.59,8.84,5.39,12.49c1.43,1.87,3,3.62,4.7,5.24
									C143.5,349.99,141.93,346.48,141.24,342.71z"/>
							</g>
							<g>
								<path class="st3" d="M107.22,375.46c-6.93-1.97-13.98-10-15.55-16.96c-0.33-1.45-0.41-2.91-0.29-4.32
									c-1.63,0.16-3.17,0.74-4.09,2.05c-1.11,1.57-0.98,3.71-0.41,5.54c1.43,4.63,5.26,8.21,9.58,10.41
									c4.31,2.2,9.12,3.21,13.87,4.18l2.27-0.4c-0.04-0.23-0.09-0.46-0.13-0.7C110.92,375.95,109.04,375.98,107.22,375.46z"/>
							</g>
							<g>
								<path class="st3" d="M125.67,365.2c-0.24-2.91-2.01-5.64-4.56-7.06c-0.24-0.14-0.5-0.25-0.76-0.35
									c1.86,5.28,2.86,11.15-0.2,16.05c-0.97,1.56-2.57,2.01-3.99,1.62c0.44,1.3,0.96,2.57,1.61,3.77l1.4,0.36
									c1.36-2.31,3.05-4.42,4.39-6.75C124.9,370.51,125.89,367.87,125.67,365.2z"/>
							</g>
							<g>
								<path class="st3" d="M110.91,389.46c-1-0.77-1.9-1.73-2.43-2.87c-0.53,0.28-1.05,0.58-1.53,0.95
									c-0.46,0.34-0.91,0.77-1.01,1.33c-0.1,0.54,0.17,1.09,0.5,1.53c1.16,1.54,3.15,2.29,5.08,2.34
									c1.63,0.04,3.24-0.38,4.79-0.93C114.4,391.45,112.58,390.74,110.91,389.46z"/>
							</g>
							<g>
								<path class="st3" d="M136.22,380.78c1.47-0.36,2.98-0.3,4.4,0.08c-0.56-1.56-1.49-3.02-2.92-3.84
									c-0.4-0.23-0.87-0.41-1.3-0.27c-0.36,0.11-0.63,0.42-0.85,0.73c-0.94,1.3-1.51,2.81-1.8,4.39
									C134.47,381.39,135.29,381.01,136.22,380.78z"/>
							</g>
						</g>
					</g>
				</g>
				<g>
					<g>
						<g>
							<path class="st3" d="M239.04,423.66c10.01-5.33,15.44-11.94,19-22.71c0.84-2.55,1.3-5.76-0.67-7.59
								c-2.11-1.97-5.53-1.01-8.07,0.35c-4.66,2.5-8.76,6.04-11.93,10.28c-4.07,5.46-7.48,12.69-14.18,13.88
								c-0.61,0.11-1.28,0.15-1.82-0.15c-1.64-0.91-0.58-3.38,0.46-4.94c1.9-2.86,3.14-6.16,3.59-9.57
								c0.08-0.62,0.13-1.27-0.11-1.84c-0.36-0.83-1.26-1.29-2.14-1.48c-3.21-0.69-6.34,1.31-8.89,3.37
								c-6.5,5.26-15.54,13.98-20.01,21.04"/>
						</g>
						<g>
							<g>
								<path class="st3" d="M183.68,343.29c4.68-2.49,8.55-6.47,10.91-11.22c1.12-2.27,1.92-4.8,1.59-7.3
									c-0.18-1.41-1.05-3.01-2.47-2.99c-1.03,0.01-1.82,0.87-2.44,1.68c-4.42,5.77-7.2,12.77-7.96,20"/>
							</g>
							<g>
								<path class="st3" d="M226.73,376.36c4.75-0.97,9.55-1.98,13.87-4.18c4.31-2.2,8.15-5.78,9.58-10.41
									c0.57-1.83,0.69-3.97-0.41-5.54c-1.4-1.97-4.2-2.32-6.59-1.99c-5.07,0.71-9.67,3.7-12.86,7.71
									c-3.19,4.01-5.03,8.96-5.85,14.02"/>
							</g>
							<g>
								<path class="st3" d="M219.28,379.23c1.39-2.59,2.24-5.43,2.85-8.31c0.82-3.9,1.09-8.3-1.24-11.52
									c-0.7-0.97-1.72-1.82-2.92-1.86c-0.71-0.02-1.41,0.25-2.03,0.6c-2.55,1.41-4.32,4.15-4.56,7.06
									c-0.22,2.67,0.77,5.31,2.11,7.64c1.34,2.33,3.03,4.43,4.39,6.75"/>
							</g>
							<g>
								<path class="st3" d="M212.16,386.46c3.02-0.7,6.07-1.41,9.17-1.44c3.1-0.03,6.3,0.66,8.78,2.52
									c0.46,0.34,0.91,0.77,1.01,1.33c0.1,0.54-0.17,1.09-0.5,1.53c-1.16,1.54-3.15,2.29-5.08,2.34
									c-1.93,0.04-3.81-0.53-5.61-1.23c-2.43-0.94-4.91-2.23-6.23-4.48"/>
							</g>
							<g>
								<path class="st3" d="M201.24,394.48c0.96-2.79,1.93-5.61,2.2-8.55c0.27-2.94-0.22-6.05-1.95-8.44
									c-0.22-0.31-0.49-0.62-0.85-0.73c-0.44-0.14-0.91,0.04-1.3,0.27c-1.63,0.94-2.62,2.72-3.14,4.53
									c-1.32,4.56,0,9.78,3.32,13.17"/>
							</g>
							<g>
								<g>
									<path class="st3" d="M242.34,359.59c-0.81,3.26-3.09,5.73-5.59,7.85c-2.4,2.03-4.96,3.88-7.49,5.74
										c-5.09,3.75-10.27,7.38-15.41,11.06c-10,7.16-19.96,14.52-28.64,23.28c-4.87,4.91-9.29,10.26-13.02,16.09
										c-0.38,0.6,0.57,1.15,0.95,0.55c13.85-21.64,36.44-35.12,56.67-50.03c2.71-2,5.47-3.97,8.01-6.17
										c2.52-2.18,4.75-4.77,5.57-8.07C243.57,359.2,242.51,358.9,242.34,359.59L242.34,359.59z"/>
								</g>
							</g>
							<g>
								<path class="st3" d="M185.45,336.23c-0.45,1.06-0.97,2.09-1.49,3.11c0.67-3.12,1.71-6.16,3.1-9.03
									C187.6,331.67,185.82,335.38,185.45,336.23z"/>
							</g>
							<g>
								<path class="st3" d="M193.88,329.27c-0.03-2.46-1.42-4.13-3.26-4.93c0.21-0.3,0.43-0.59,0.65-0.88
									c0.62-0.81,1.42-1.68,2.44-1.68c1.42-0.01,2.29,1.59,2.47,2.99c0.33,2.51-0.47,5.04-1.59,7.3
									c-0.57,1.16-1.24,2.27-1.98,3.32C193.42,333.44,193.9,331.38,193.88,329.27z"/>
							</g>
						</g>
					</g>
					<g>
						<g>
							<path class="st3" d="M222.73,411.31c-1-3.82-4.18-7.11-7.92-8.45c2.45-1.9,5.37-3.6,8.35-2.95c0.88,0.19,1.79,0.65,2.14,1.48
								c0.25,0.57,0.19,1.22,0.11,1.83C225.05,406.05,224.13,408.81,222.73,411.31z"/>
						</g>
						<g>
							<path class="st3" d="M239.49,419.89c3.68-4.19,7.29-8.64,10.03-13.51c1.8-3.21,3.8-7.35,2.57-11.1
								c-0.3-0.91-0.74-1.66-1.27-2.27c2.27-0.91,4.85-1.24,6.56,0.36c1.97,1.83,1.51,5.04,0.67,7.59
								c-3.56,10.77-8.99,17.38-19,22.71l-2.95,0.04C237.27,422.44,238.4,421.13,239.49,419.89z"/>
						</g>
						<g>
							<g>
								<path class="st3" d="M229.82,375.46c6.93-1.97,13.98-10,15.55-16.96c0.33-1.45,0.41-2.91,0.29-4.32
									c1.63,0.16,3.17,0.74,4.09,2.05c1.11,1.57,0.98,3.71,0.41,5.54c-1.43,4.63-5.26,8.21-9.58,10.41
									c-4.31,2.2-9.12,3.21-13.87,4.18l-2.27-0.4c0.04-0.23,0.09-0.46,0.13-0.7C226.13,375.95,228,375.98,229.82,375.46z"/>
							</g>
							<g>
								<path class="st3" d="M211.37,365.2c0.24-2.91,2.01-5.64,4.56-7.06c0.24-0.14,0.5-0.25,0.76-0.35
									c-1.86,5.28-2.86,11.15,0.2,16.05c0.97,1.56,2.57,2.01,3.99,1.62c-0.44,1.3-0.96,2.57-1.61,3.77l-1.4,0.36
									c-1.36-2.31-3.05-4.42-4.39-6.75C212.15,370.51,211.15,367.87,211.37,365.2z"/>
							</g>
							<g>
								<path class="st3" d="M226.13,389.46c1-0.77,1.9-1.73,2.43-2.87c0.53,0.28,1.05,0.58,1.53,0.95
									c0.46,0.34,0.91,0.77,1.01,1.33c0.1,0.54-0.17,1.09-0.5,1.53c-1.16,1.54-3.15,2.29-5.08,2.34
									c-1.63,0.04-3.24-0.38-4.79-0.93C222.65,391.45,224.47,390.74,226.13,389.46z"/>
							</g>
							<g>
								<path class="st3" d="M200.82,380.78c-1.47-0.36-2.98-0.3-4.4,0.08c0.56-1.56,1.49-3.02,2.92-3.84
									c0.4-0.23,0.87-0.41,1.3-0.27c0.36,0.11,0.63,0.42,0.85,0.73c0.94,1.3,1.51,2.81,1.8,4.39
									C202.58,381.39,201.76,381.01,200.82,380.78z"/>
							</g>
						</g>
					</g>
				</g>
				<g class="st4">
					<circle class="st3" cx="114.79" cy="345.95" r="1.7"/>
					<path class="st3" d="M79.99,384.16c0-1.34-1.09-2.43-2.43-2.43c-1.34,0-2.43,1.09-2.43,2.43s1.09,2.43,2.43,2.43
						C78.9,386.59,79.99,385.5,79.99,384.16z"/>
					<path class="st3" d="M108.71,289.98c0-2.42-1.96-4.38-4.38-4.38c-2.42,0-4.38,1.96-4.38,4.38s1.96,4.38,4.38,4.38
						C106.75,294.36,108.71,292.4,108.71,289.98z"/>
					<path class="st3" d="M196.32,300.93c0-1.08-0.87-1.95-1.95-1.95c-1.08,0-1.95,0.87-1.95,1.95c0,1.08,0.87,1.95,1.95,1.95
						C195.45,302.88,196.32,302.01,196.32,300.93z"/>
					<path class="st3" d="M263,380.51c0-1.75-1.42-3.16-3.16-3.16c-1.75,0-3.16,1.42-3.16,3.16s1.42,3.16,3.16,3.16
						C261.58,383.67,263,382.26,263,380.51z"/>
					<circle class="st3" cx="225.03" cy="341.33" r="1.22"/>
					<path class="st3" d="M172.47,258.34c0-1.88-1.53-3.41-3.41-3.41s-3.41,1.53-3.41,3.41s1.53,3.41,3.41,3.41
						S172.47,260.23,172.47,258.34z"/>
				</g>
				<g>
					<path class="st5" d="M223.69,290.94c5.13,0.11,9.38-3.97,9.49-9.11c0.11-5.13-3.97-9.38-9.11-9.49
						c-5.13-0.11-9.38,3.97-9.49,9.11C214.48,286.58,218.56,290.83,223.69,290.94z"/>
					<path class="st5" d="M216.81,274.05c-3.68-1.73-3.48,0.29-3.33,1.33c0.07,0.46,0.34,0.86,0.61,1.23
						c3.84,5.23,9.77,8.49,15.74,11.03c1.45,0.62,3.11,1.2,4.55,0.57c0.3-0.13,0.59-0.32,0.75-0.6c0.47-0.82-0.32-1.77-1.03-2.39"/>
				</g>
				<g>
					<path class="st6" d="M103.59,323.95c0.08-4.05-3.13-7.4-7.18-7.49c-4.05-0.08-7.4,3.13-7.49,7.18
						c-0.08,4.05,3.13,7.4,7.18,7.49C100.15,331.22,103.51,328.01,103.59,323.95z"/>
					<path class="st6" d="M90.27,329.39c-1.36,2.91,0.23,2.75,1.05,2.62c0.36-0.05,0.68-0.27,0.97-0.48
						c4.12-3.03,6.7-7.71,8.7-12.42c0.49-1.14,0.95-2.45,0.45-3.59c-0.1-0.24-0.25-0.46-0.47-0.59c-0.65-0.37-1.4,0.25-1.88,0.82"/>
				</g>
			</g>
			<g>
				<g>
					<g>
						<g>
							<polygon class="st7" points="186.73,407.46 185.98,412.07 151.82,416.33 148.98,409.74 							"/>
							<g>
								<g>
									<path class="st7" d="M240.09,389.74c-0.2,0.8,0.68,1.16,2.37,1.64c1.38,1.93-3.03,2.75-3.03,2.75l-3.71,0.14
										c0,0-1.38,0-0.55-1.93c0.83-1.93,0.9-1.51,2.06-1.65c1.1-0.14,3.93-0.4,2.89-1.79c-0.41-0.55-3-1.51-4.54-1.51
										c-0.6,0-2.48,2.06-3.58,3.16c-0.99,0.99-2.15,4.26-2.15,4.26c-16.87,3.67-26.5-1.15-26.5-1.15
										c-2.41-7.36-5.56-44.76-18.44-42.95c-2.41,0.34-7.45,8.22-6.68,15.56c0.25,11.66,6.85,23.12,9.62,38.85
										c1.93,10.91,30.21,1.6,45.25-0.96c0,0,23.52-3.58,23.1-5.64c-0.41-2.06-10.59-0.28-10.59-0.28s11.28,0.14,11-1.79
										c-0.28-1.93-13.06-0.14-13.06-0.14l1.67-1.29c0.56-0.43,0.78-1.18,0.55-1.85l-0.91-2.62c-0.19-0.55-0.65-0.95-1.22-1.07
										c-0.64-0.13-1.43-0.38-2.05-0.56C240.96,388.76,240.25,389.1,240.09,389.74z"/>
								</g>
								<g>
									<g>
										<path class="st8" d="M180.42,300.81c3.39-9.57-1.58-18.48-10.63-20.73c-14.62-3.63-13.55-3-19.61-18.29
											c-3.29-8.3-9.71-15.31-17.68-19.32c-4.02-2.02-8.78-3.29-13-1.72c-14.25,5.3,0.62,13.02,5.12,16.8
											c0.71,0.6,1.44,1.3,1.58,2.22c0.12,0.75-0.19,1.51-0.62,2.14c-2.26,3.37-7.04,3.59-11.11,3.57
											c-4.06-0.02-8.92,0.55-10.76,4.17c-1.73,3.4,0.35,7.57,3.08,10.24s6.19,4.68,8.22,7.92c2.01,3.21,2.32,7.17,2.76,10.93
											c2.27,19.05,9.88,34.27,30.61,37.85c14.55,2.51,32.94-3.95,32.43-21.39"/>
									</g>
									<g>
										<g>
											<g>
												<path class="st8" d="M180.25,297.55c2.64,1.57,3.91-3.22,4.31-4.83c0.86-3.47,1.13-7.22,0.07-10.68
													c-0.85-2.76-2.55-5.32-4.95-6.98c-2.62-1.81-5.77-2.06-8.85-1.69c-3.3,0.4-6.55,1.41-9.9,1.41
													c-3.73,0-6.86-1.75-8.81-4.93c-4.04-6.61-1.92-14.74-4.36-21.82c-2.23-6.47-7.85-11.5-14.49-13.11
													c-0.39-0.09-0.55,0.5-0.16,0.6c5.93,1.43,11.01,5.66,13.49,11.24c2.81,6.34,1.23,13.55,3.44,20.05
													c0.85,2.51,2.23,4.93,4.36,6.56c2.15,1.65,4.8,2.16,7.46,2.01c5.88-0.32,12.47-3.53,17.8,0.43c3.1,2.3,4.74,6.08,5,9.86
													c0.15,2.09-0.08,4.18-0.54,6.22c-0.28,1.24-1.33,6.44-3.55,5.12C180.22,296.81,179.91,297.34,180.25,297.55
													L180.25,297.55z"/>
											</g>
										</g>
										<g>
											<g>
												<path class="st8" d="M162.51,333.23c-6.91,7.14-17.88,9.29-26.87,4.93c-4.24-2.06-7.86-5.36-10.2-9.46
													c-2.5-4.39-3.47-9.43-3.62-14.43c-0.17-5.68,0.66-11.34,1.54-16.94c0.06-0.39-0.54-0.56-0.6-0.16
													c-1.6,10.13-3.26,21.44,1.65,30.96c4.48,8.68,14.25,13.98,23.98,12.79c5.51-0.68,10.69-3.24,14.55-7.24
													C163.23,333.38,162.79,332.94,162.51,333.23L162.51,333.23z"/>
											</g>
										</g>
									</g>
								</g>
								<g>
									<path class="st7" d="M156.39,312.6c-0.08,0.35-0.42,0.56-0.76,0.47c-1.43-0.37-4.66-1.51-6.08,2.11
										c-1.43,3.67,1.63,6.72,3.78,7.39c0.62,0.19,2.03,0.69,2.34,1.26c0.95,1.75,0.77,5.01,0.79,9.14
										c0.05,9.11-3.13,17.12-3.13,17.12s17.73,11.72,20.32,0.63c0,0-0.08-21.39,0.05-21.47c2.19-1.3,9.98-0.53,9.38-16.08
										c-0.55-14.41-10.63-15.95-13.24-16.14C167.64,296.86,160.2,295.46,156.39,312.6z"/>
									<g>
										<path class="st9" d="M150.9,316.68c0,0,3.46-4.18,4.7,2.91"/>
										<path class="st10" d="M168.83,315.77c1.87,0.43,3.03,2.29,2.6,4.16c-0.43,1.87-2.29,3.03-4.16,2.6
											c-1.87-0.43-3.03-2.29-2.6-4.16C165.1,316.51,166.97,315.35,168.83,315.77z"/>
										<path class="st10" d="M182.53,320.59c-1.47-0.67-2.31-2.3-1.94-3.94c0.29-1.26,1.23-2.2,2.39-2.55
											C182.98,314.11,183.47,318.19,182.53,320.59z"/>
										<path class="st11" d="M174.37,319.07c0,0,1.09,1.75,3.51,1.34c1.58-0.27,2.37-1.92,2.37-1.92"/>
										<path class="st9" d="M177.28,315.54l-0.49,2.65l1.4-0.02c0.26,0,0.42-0.28,0.29-0.51L177.28,315.54z"/>
										<path d="M171.37,311.19c-0.6,0.51,0.21-1.6,1.06-1.91c0.86-0.31,1.77,0.03,2.04,0.77
											C174.48,310.06,172.82,309.97,171.37,311.19z"/>
										<path d="M181.42,310.08c0.68,0.39-0.49-1.53-1.39-1.69c-0.9-0.16-1.74,0.35-1.87,1.13
											C178.16,309.52,179.77,309.14,181.42,310.08z"/>
										<path class="st9" d="M174.43,329.05c0,0-4.13,0.31-7.3-0.72C168.89,333.1,172.73,332.79,174.43,329.05z"/>
									</g>
									<path class="st8" d="M179.62,294.49c8.16,4.2,4.31,14.37,4.31,14.37c-3.94,0.48-7.98-5.01-9.12-8.81l-0.37-1.23l0,0
										c0.3,4.6-2.55,8.82-6.92,10.27l-7.81,2.6l2.39-9.01l-3.75,10.59l-5.5-1.65C152.85,311.61,160.58,284.7,179.62,294.49z"/>
									<g>
										<path class="st11" d="M173.21,315.91c0.79,0.27,1.74,0.56,2.43-0.27"/>
										<path class="st11" d="M178.53,315.45c0.79,0.27,1.74,0.56,2.43-0.27"/>
									</g>
								</g>
								<path class="st2" d="M174.58,341.45c0,0,17.05-3.16,21.45,24.34l-19.8,3.3L174.58,341.45z"/>
								<path class="st12" d="M186.83,353.02c-3.68-3.94-7.98-6.93-12.16-10.17l1.57,26.25l19.8-3.3c-0.05-0.33-0.12-0.63-0.17-0.95
									C193.13,360.69,190.23,356.66,186.83,353.02z"/>
								<g>
									<path class="st2" d="M174.17,341.32c8.94,4.4,16.28,26.29,16.63,36.19c0.35,9.98-0.54,25.97-0.54,25.97
										s-33.37,0.72-43.18,1.38c-5.39-16.42-6.09-44.16-2.75-56.84c0,0,5.39-3.98,10.09-6.05
										C154.41,341.96,168.69,360.68,174.17,341.32z"/>
								</g>
								<g class="st13">
									<path class="st2" d="M143.87,349.97c-2.8,13.4-1.92,39.25,3.21,54.88c4.98-0.33,16.04-0.68,25.71-0.94
										C158.85,388.53,147.06,370.52,143.87,349.97z"/>
								</g>
								<g>
									<path class="st7" d="M89.07,389.74c0.2,0.8-0.68,1.16-2.37,1.64c-1.38,1.93,3.03,2.75,3.03,2.75l3.71,0.14
										c0,0,1.38,0,0.55-1.93c-0.83-1.93-0.9-1.51-2.06-1.65c-1.1-0.14-3.93-0.4-2.89-1.79c0.41-0.55,3-1.51,4.54-1.51
										c0.6,0,2.48,2.06,3.58,3.16c0.99,0.99,2.15,4.26,2.15,4.26c16.87,3.67,26.5-1.15,26.5-1.15
										c2.41-7.36,5.56-44.76,18.44-42.95c2.41,0.34,7.45,8.22,6.68,15.56c-0.25,11.66-6.85,23.12-9.62,38.85
										c-1.93,10.91-30.21,1.6-45.25-0.96c0,0-23.52-3.58-23.1-5.64c0.41-2.06,10.59-0.28,10.59-0.28s-11.28,0.14-11-1.79
										c0.28-1.93,13.06-0.14,13.06-0.14l-1.67-1.29c-0.56-0.43-0.78-1.18-0.55-1.85l0.91-2.62c0.19-0.55,0.65-0.95,1.22-1.07
										c0.64-0.13,1.43-0.38,2.05-0.56C88.19,388.76,88.91,389.1,89.07,389.74z"/>
								</g>
								<path class="st2" d="M148.18,344.89c6.95,1.45,14.58,9.08,3.85,32.18l-23.93-8.25C128.1,368.82,136.35,342.42,148.18,344.89
									z"/>
							</g>
						</g>
						<path class="st14" d="M149.64,404.3c-10.54,12.65-17.8,46.12-17.8,46.12l72.44-1.74c0,0-4.17-32.87-17.47-45.06
							C186.78,403.7,166.33,402.93,149.64,404.3z"/>
						<path class="st15" d="M149.64,404.3c-10.54,12.65-17.8,46.12-17.8,46.12l72.44-1.74c0,0-4.17-32.87-17.47-45.06
							C186.78,403.7,166.33,402.93,149.64,404.3z"/>
						<g class="st0">
							<g>
								<path class="st16" d="M135.33,353.23c1.8,3.72,4.99,6.37,7.41,9.67c2.29,3.22,3.96,8.09,1.31,11.57
									c2.13-3.63,0.44-8.06-1.81-11.21C139.91,359.99,136.66,357.15,135.33,353.23L135.33,353.23z"/>
							</g>
							<g>
								<path class="st16" d="M130.66,359.48c3.35,2.84,5.67,7,6.33,11.34C135.47,366.68,133.38,362.93,130.66,359.48L130.66,359.48
									z"/>
							</g>
							<g>
								<path class="st16" d="M144.57,346.26c1.3,6.92,3.13,15.51,10.67,18.03C147.27,362.59,144.96,353.33,144.57,346.26
									L144.57,346.26z"/>
							</g>
							<g>
								<path class="st16" d="M154.54,402.41c2.47-14.85,14.17-28.75,30.12-28.51c2.15,0.05,4.28,0.39,6.32,1.02
									c-8.29-2.1-17.3,0.52-23.78,5.9C160.62,386.24,156.52,394.21,154.54,402.41L154.54,402.41z"/>
							</g>
							<g>
								<path class="st16" d="M191.61,387.56c-2.14-1.24-5.84-2.49-7.19,0.38c-0.5,1.6-0.98,3.36-2.12,4.68
									c-2.1,2.88-6.09,3.12-8.44,5.62c-0.75,0.8-1.28,1.87-1.21,3.01c-0.21-1.14,0.27-2.31,0.98-3.21
									c2.18-2.69,6.15-2.98,8.19-5.81c1.15-1.3,1.55-2.89,2.11-4.5C185.43,384.61,189.48,385.9,191.61,387.56L191.61,387.56z"/>
							</g>
							<g>
								<path class="st16" d="M180.52,342.61c2.41,5.92,6.87,10.87,12.51,13.89C186.98,354.25,182.12,348.85,180.52,342.61
									L180.52,342.61z"/>
							</g>
							<g>
								<path class="st16" d="M175.7,342.61c0.89,4.36,1.38,8.8,1.41,13.26c0.23,4.54-0.87,10.19-6.53,10.15
									c-6.03-0.26-7.37,1.01-10.34,6.12c-2.36,3.8-5.84,6.9-9.89,8.78c3.93-2.08,7.24-5.25,9.48-9.03
									c2.86-5.23,4.59-6.73,10.72-6.49c5.32,0.1,6.16-5.27,6.08-9.53C176.69,351.43,176.38,346.99,175.7,342.61L175.7,342.61z"/>
							</g>
						</g>
					</g>
					<g>
						<path class="st7" d="M218.11,456.89c1.32-0.23-0.03-2.68-3.1-3.6c-4.91-1.47-12.81-4.25-15.13-7.07
							c-2.67-3.25-5.16-4.52-6.93-4.99c-1.34-0.35-2.75-0.01-3.81,0.88c-0.72,0.6-1.69,1.26-2.64,1.32
							c-1.11,0.08-2.44-0.21-2.44-0.21l0.57,14.96C184.62,458.19,212.15,457.93,218.11,456.89z"/>
					</g>
					<path class="st14" d="M186.71,458.05c0,0-92.04-1.35-92.68-25.15c-0.59-22,35.99-16.77,39.84-16.22
						c14.42,2.06,53.27,20.05,53.27,20.05L186.71,458.05z"/>
					<path class="st17" d="M162.2,426.03l24.2,10.18l-0.52,21.92c0,0-59.18-3.2-73.07-10.14L162.2,426.03z"/>
					<line class="st18" x1="178.25" y1="457.84" x2="180.89" y2="433.4"/>
					<path class="st14" d="M158.08,456.83c0,0,88.13-3.01,85.54-26.68c-1.93-17.6-30.81-14.17-44.56-9.35
						c-13.75,4.82-42.08,17.6-42.08,17.6L158.08,456.83z"/>
					<g>
						<path class="st7" d="M124.9,456.88c-1.34-0.1-0.23-2.67,2.74-3.89c4.74-1.94,12.34-5.47,14.37-8.5c2.35-3.5,4.69-5,6.42-5.64
							c1.3-0.48,2.74-0.28,3.88,0.51c0.77,0.53,1.81,1.09,2.75,1.06c1.11-0.03,2.41-0.44,2.41-0.44l0.89,14.94
							C158.35,454.92,130.93,457.33,124.9,456.88z"/>
					</g>
					<line class="st18" x1="161.75" y1="436.57" x2="163.58" y2="455.73"/>
				</g>
			</g>
		</g>
	</g>
	<g>
		<g class="st0">
			<g>
				<path class="st1" d="M412.69,447.92c-15.15,5.6-32.46,5.1-47.27-1.37c-14.8-6.46-26.94-18.82-33.13-33.74
					c-2.24-5.39-3.71-11.56-1.58-16.99c2.3-5.87,8.16-9.42,13.64-12.53c7.47-4.25,14.93-8.5,22.4-12.75
					c11.61-6.61,24.43-14.85,26.73-28.02c2.27-13-6.77-25.03-15.58-34.86c-8.81-9.83-18.55-20.87-18.05-34.06
					c0.48-12.77,10.48-22.95,20.22-31.22c6.07-5.15,12.48-10.21,20.01-12.78c6.6-2.26,13.72-2.49,20.7-2.27
					c26.31,0.83,53.81,8.67,71.46,28.19c4.97,5.5,8.78,14.74,3.21,19.63c-3.42,3-8.53,2.48-13.04,3.06
					c-9,1.14-17.09,7.73-20.02,16.31c-4.7,13.72,3.59,28.66,14.12,38.63c10.53,9.97,23.59,17.29,32.69,28.57
					c13.69,16.96,15.68,43.6,1.72,60.34c-5.77,6.93-13.7,11.79-22.04,15.21c-18.15,7.45-38.2,8.43-57.8,9.31"/>
			</g>
			<g>
				<path class="st1" d="M505.34,323.9c-6.25-4.23-12.65-8.76-16.41-15.3c-3.76-6.54-4.08-15.69,1.28-21
					c4.28-4.24,11.2-4.99,16.88-2.98c5.68,2,10.27,6.33,13.92,11.12c2.81,3.68,5.22,7.79,6.11,12.34c0.89,4.54,0.1,9.58-2.9,13.11
					c-3,3.53-8.39,5.11-12.52,3.02"/>
			</g>
			<g>
				<path class="st1" d="M345.31,321.42c1.11,1.55,3.56,0.53,5.04-0.69c7.09-5.83,12.8-15.37,9.51-23.94
					c-2.06-5.36-7.59-9.13-13.33-9.32c-5.74-0.2-11.41,3.05-14.37,7.97c-2.89,4.81-3.18,11.09-0.75,16.14
					c2.43,5.06,7.51,8.75,13.08,9.5"/>
			</g>
		</g>
		<g>
			<g>
				<g>
					<g>
						<g>
							<path class="st3" d="M349.23,434.81c-10.72-5.71-16.54-12.79-20.35-24.33c-0.9-2.74-1.39-6.17,0.71-8.13
								c2.26-2.1,5.92-1.09,8.64,0.37c4.99,2.68,9.39,6.47,12.78,11.01c4.36,5.85,8.01,13.59,15.19,14.87
								c0.65,0.12,1.37,0.16,1.95-0.16c1.76-0.97,0.62-3.62-0.49-5.29c-2.04-3.07-3.36-6.6-3.84-10.25
								c-0.09-0.66-0.14-1.36,0.12-1.97c0.38-0.89,1.35-1.38,2.3-1.59c3.44-0.74,6.79,1.4,9.52,3.61
								c6.97,5.63,16.64,14.97,21.44,22.53"/>
						</g>
						<g>
							<g>
								<path class="st3" d="M420.29,371.11c-9.89-3.02-18.78-9.19-25.07-17.4c-3-3.92-5.47-8.46-5.78-13.38
									c-0.17-2.76,0.89-6.15,3.61-6.65c1.97-0.36,3.81,0.99,5.3,2.31c10.61,9.39,18.56,21.75,22.71,35.29"/>
							</g>
							<g>
								<path class="st3" d="M362.42,384.15c-5.08-1.04-10.23-2.12-14.85-4.48c-4.62-2.36-8.73-6.19-10.26-11.15
									c-0.61-1.97-0.74-4.26,0.44-5.94c1.49-2.11,4.5-2.49,7.06-2.13c5.43,0.76,10.36,3.96,13.77,8.26
									c3.41,4.29,5.39,9.6,6.27,15.02"/>
							</g>
							<g>
								<path class="st3" d="M370.4,387.21c-1.49-2.77-2.4-5.82-3.05-8.9c-0.88-4.17-1.17-8.89,1.33-12.34
									c0.75-1.04,1.84-1.95,3.12-1.99c0.77-0.02,1.51,0.27,2.18,0.64c2.73,1.51,4.63,4.45,4.89,7.56
									c0.24,2.87-0.83,5.69-2.26,8.18c-1.43,2.49-3.24,4.75-4.7,7.23"/>
							</g>
							<g>
								<path class="st3" d="M378.03,394.96c-3.23-0.75-6.5-1.51-9.82-1.54s-6.75,0.71-9.4,2.7c-0.49,0.37-0.98,0.82-1.08,1.42
									c-0.1,0.58,0.18,1.17,0.54,1.64c1.24,1.65,3.37,2.46,5.44,2.5s4.09-0.57,6.01-1.32c2.61-1.01,5.26-2.39,6.68-4.8"/>
							</g>
							<g>
								<path class="st3" d="M389.72,403.55c-1.03-2.99-2.07-6.01-2.36-9.16s0.24-6.48,2.09-9.04c0.24-0.33,0.52-0.66,0.91-0.78
									c0.47-0.15,0.97,0.04,1.4,0.29c1.75,1.01,2.8,2.91,3.37,4.85c1.41,4.88,0,10.48-3.56,14.11"/>
							</g>
							<g>
								<g>
									<path class="st3" d="M344.57,366.49c1.53,6.22,7.56,10.05,12.38,13.65c5.49,4.1,11.09,8.04,16.66,12.02
										c11.03,7.86,22.04,15.86,31.68,25.42c5.45,5.4,10.39,11.3,14.53,17.76c0.41,0.64,1.42,0.05,1.02-0.59
										c-7.14-11.16-16.62-20.51-26.87-28.83c-10.41-8.45-21.56-15.92-32.39-23.82c-3.12-2.27-6.27-4.54-9.25-6.99
										c-2.92-2.39-5.69-5.17-6.62-8.94C345.52,365.44,344.38,365.75,344.57,366.49L344.57,366.49z"/>
								</g>
							</g>
						</g>
					</g>
					<g>
						<g>
							<path class="st3" d="M366.7,421.57c1.08-4.09,4.47-7.62,8.48-9.05c-2.62-2.04-5.75-3.85-8.95-3.16
								c-0.95,0.2-1.91,0.7-2.3,1.59c-0.26,0.61-0.21,1.31-0.12,1.97C364.21,415.95,365.21,418.9,366.7,421.57z"/>
						</g>
						<g>
							<path class="st3" d="M348.75,430.77c-3.94-4.48-7.81-9.25-10.74-14.47c-1.93-3.44-4.07-7.87-2.75-11.89
								c0.32-0.97,0.79-1.78,1.36-2.43c-2.43-0.98-5.2-1.33-7.03,0.38c-2.11,1.96-1.62,5.39-0.71,8.13
								c3.81,11.54,9.63,18.61,20.35,24.33l3.16,0.05C351.12,433.5,349.92,432.1,348.75,430.77z"/>
						</g>
						<g>
							<g>
								<path class="st3" d="M414.27,358.27c1.27,1.86,2.63,3.64,4.01,5.4c-2.44-5.72-5.57-11.15-9.3-16.13
									C408.46,350.34,413.25,356.78,414.27,358.27z"/>
							</g>
							<g>
								<path class="st3" d="M395.55,348.1c-0.86-4.71,1.17-8.43,4.4-10.66c-0.52-0.49-1.04-0.97-1.58-1.45
									c-1.5-1.33-3.34-2.68-5.3-2.31c-2.72,0.5-3.79,3.89-3.61,6.65c0.31,4.92,2.78,9.47,5.78,13.38c1.53,2,3.22,3.87,5.03,5.62
									C397.97,355.89,396.28,352.13,395.55,348.1z"/>
							</g>
							<g>
								<path class="st3" d="M359.1,383.18c-7.42-2.11-14.98-10.71-16.66-18.17c-0.35-1.55-0.44-3.11-0.31-4.62
									c-1.74,0.17-3.39,0.79-4.38,2.19c-1.19,1.68-1.05,3.97-0.44,5.94c1.53,4.96,5.64,8.79,10.26,11.15
									c4.62,2.36,9.77,3.44,14.85,4.48l2.44-0.43c-0.04-0.25-0.1-0.5-0.14-0.75C363.06,383.71,361.06,383.74,359.1,383.18z"/>
							</g>
							<g>
								<path class="st3" d="M378.87,372.18c-0.26-3.11-2.15-6.05-4.89-7.56c-0.26-0.15-0.54-0.27-0.82-0.38
									c2,5.66,3.06,11.94-0.21,17.2c-1.04,1.67-2.75,2.15-4.27,1.73c0.47,1.39,1.03,2.75,1.73,4.04l1.5,0.38
									c1.46-2.48,3.27-4.74,4.7-7.23C378.04,377.88,379.11,375.05,378.87,372.18z"/>
							</g>
							<g>
								<path class="st3" d="M363.06,398.18c-1.07-0.82-2.04-1.86-2.61-3.07c-0.57,0.3-1.12,0.62-1.64,1.01
									c-0.49,0.37-0.98,0.82-1.08,1.42c-0.1,0.58,0.18,1.17,0.54,1.64c1.24,1.65,3.37,2.46,5.44,2.5c1.75,0.04,3.47-0.4,5.13-0.99
									C366.79,400.3,364.84,399.55,363.06,398.18z"/>
							</g>
							<g>
								<path class="st3" d="M390.17,388.88c1.58-0.39,3.19-0.32,4.72,0.09c-0.6-1.67-1.6-3.23-3.12-4.11
									c-0.42-0.24-0.93-0.43-1.4-0.29c-0.39,0.12-0.67,0.45-0.91,0.78c-1.01,1.39-1.62,3.01-1.93,4.71
									C388.29,389.54,389.17,389.13,390.17,388.88z"/>
							</g>
						</g>
					</g>
				</g>
				<g>
					<g>
						<g>
							<path class="st3" d="M500.31,434.81c10.72-5.71,16.54-12.79,20.35-24.33c0.9-2.74,1.39-6.17-0.71-8.13
								c-2.26-2.1-5.92-1.09-8.64,0.37c-4.99,2.68-9.39,6.47-12.78,11.01c-4.36,5.85-8.01,13.59-15.19,14.87
								c-0.65,0.12-1.37,0.16-1.95-0.16c-1.76-0.97-0.62-3.62,0.49-5.29c2.04-3.07,3.36-6.6,3.84-10.25
								c0.09-0.66,0.14-1.36-0.12-1.97c-0.38-0.89-1.35-1.38-2.3-1.59c-3.44-0.74-6.79,1.4-9.52,3.61
								c-6.97,5.63-16.64,14.97-21.44,22.53"/>
						</g>
						<g>
							<g>
								<path class="st3" d="M441.01,348.72c5.01-2.67,9.16-6.93,11.69-12.02c1.2-2.43,2.06-5.14,1.71-7.82
									c-0.2-1.51-1.13-3.22-2.65-3.21c-1.1,0.01-1.95,0.93-2.62,1.8c-4.73,6.18-7.72,13.68-8.53,21.42"/>
							</g>
							<g>
								<path class="st3" d="M487.12,384.15c5.08-1.04,10.23-2.12,14.85-4.48c4.62-2.36,8.73-6.19,10.26-11.15
									c0.61-1.97,0.74-4.26-0.44-5.94c-1.49-2.11-4.5-2.49-7.06-2.13c-5.43,0.76-10.36,3.96-13.77,8.26
									c-3.41,4.29-5.39,9.6-6.27,15.02"/>
							</g>
							<g>
								<path class="st3" d="M479.14,387.21c1.49-2.77,2.4-5.82,3.05-8.9c0.88-4.17,1.17-8.89-1.33-12.34
									c-0.75-1.04-1.84-1.95-3.12-1.99c-0.77-0.02-1.51,0.27-2.18,0.64c-2.73,1.51-4.63,4.45-4.89,7.56
									c-0.24,2.87,0.83,5.69,2.26,8.18c1.43,2.49,3.24,4.75,4.7,7.23"/>
							</g>
							<g>
								<path class="st3" d="M471.51,394.96c3.23-0.75,6.5-1.51,9.82-1.54s6.75,0.71,9.4,2.7c0.49,0.37,0.98,0.82,1.08,1.42
									c0.1,0.58-0.18,1.17-0.54,1.64c-1.24,1.65-3.37,2.46-5.44,2.5c-2.06,0.05-4.09-0.57-6.01-1.32
									c-2.61-1.01-5.26-2.39-6.68-4.8"/>
							</g>
							<g>
								<path class="st3" d="M459.82,403.55c1.03-2.99,2.07-6.01,2.36-9.16c0.29-3.15-0.24-6.48-2.09-9.04
									c-0.24-0.33-0.52-0.66-0.91-0.78c-0.47-0.15-0.97,0.04-1.4,0.29c-1.75,1.01-2.8,2.91-3.37,4.85
									c-1.41,4.88,0,10.48,3.56,14.11"/>
							</g>
							<g>
								<g>
									<path class="st3" d="M503.84,366.18c-0.82,3.31-3.06,5.87-5.58,8.06c-2.6,2.26-5.42,4.28-8.19,6.32
										c-5.41,3.99-10.91,7.85-16.37,11.76c-10.81,7.73-21.58,15.67-30.97,25.13c-5.24,5.28-10,11.03-14.01,17.3
										c-0.41,0.64,0.61,1.23,1.02,0.59c7.3-11.42,17.1-20.9,27.62-29.34c10.64-8.54,22.02-16.1,33-24.19
										c2.96-2.18,5.98-4.33,8.75-6.74c2.66-2.32,5.02-5.08,5.88-8.58C505.15,365.76,504.02,365.44,503.84,366.18L503.84,366.18z"
										/>
								</g>
							</g>
							<g>
								<path class="st3" d="M442.9,341.16c-0.49,1.14-1.03,2.24-1.6,3.34c0.71-3.34,1.83-6.6,3.32-9.67
									C445.2,336.27,443.3,340.25,442.9,341.16z"/>
							</g>
							<g>
								<path class="st3" d="M451.93,333.7c-0.03-2.63-1.52-4.42-3.49-5.29c0.23-0.32,0.46-0.64,0.7-0.95
									c0.67-0.87,1.52-1.79,2.62-1.8c1.52-0.01,2.45,1.7,2.65,3.21c0.35,2.69-0.5,5.4-1.71,7.82c-0.61,1.24-1.33,2.43-2.12,3.56
									C451.44,338.16,451.96,335.96,451.93,333.7z"/>
							</g>
						</g>
					</g>
					<g>
						<g>
							<path class="st3" d="M482.84,421.57c-1.08-4.09-4.47-7.62-8.48-9.05c2.62-2.04,5.75-3.85,8.95-3.16
								c0.95,0.2,1.91,0.7,2.3,1.59c0.26,0.61,0.21,1.31,0.12,1.97C485.33,415.95,484.33,418.9,482.84,421.57z"/>
						</g>
						<g>
							<path class="st3" d="M500.79,430.77c3.94-4.48,7.81-9.25,10.74-14.47c1.93-3.44,4.07-7.87,2.75-11.89
								c-0.32-0.97-0.79-1.78-1.36-2.43c2.43-0.98,5.2-1.33,7.03,0.38c2.11,1.96,1.62,5.39,0.71,8.13
								c-3.81,11.54-9.63,18.61-20.35,24.33l-3.16,0.05C498.41,433.5,499.62,432.1,500.79,430.77z"/>
						</g>
						<g>
							<g>
								<path class="st3" d="M490.43,383.18c7.42-2.11,14.98-10.71,16.66-18.17c0.35-1.55,0.44-3.11,0.31-4.62
									c1.74,0.17,3.39,0.79,4.38,2.19c1.19,1.68,1.05,3.97,0.44,5.94c-1.53,4.96-5.64,8.79-10.26,11.15
									c-4.62,2.36-9.77,3.44-14.85,4.48l-2.44-0.43c0.04-0.25,0.1-0.5,0.14-0.75C486.48,383.71,488.48,383.74,490.43,383.18z"/>
							</g>
							<g>
								<path class="st3" d="M470.67,372.18c0.26-3.11,2.15-6.05,4.89-7.56c0.26-0.15,0.54-0.27,0.82-0.38
									c-2,5.66-3.06,11.94,0.21,17.2c1.04,1.67,2.75,2.15,4.27,1.73c-0.47,1.39-1.03,2.75-1.73,4.04l-1.5,0.38
									c-1.46-2.48-3.27-4.74-4.7-7.23C471.5,377.88,470.43,375.05,470.67,372.18z"/>
							</g>
							<g>
								<path class="st3" d="M486.48,398.18c1.07-0.82,2.04-1.86,2.61-3.07c0.57,0.3,1.12,0.62,1.64,1.01
									c0.49,0.37,0.98,0.82,1.08,1.42c0.1,0.58-0.18,1.17-0.54,1.64c-1.24,1.65-3.37,2.46-5.44,2.5c-1.75,0.04-3.47-0.4-5.13-0.99
									C482.75,400.3,484.7,399.55,486.48,398.18z"/>
							</g>
							<g>
								<path class="st3" d="M459.37,388.88c-1.58-0.39-3.19-0.32-4.72,0.09c0.6-1.67,1.6-3.23,3.12-4.11
									c0.42-0.24,0.93-0.43,1.4-0.29c0.39,0.12,0.67,0.45,0.91,0.78c1.01,1.39,1.62,3.01,1.93,4.71
									C461.25,389.54,460.37,389.13,459.37,388.88z"/>
							</g>
						</g>
					</g>
				</g>
				<g class="st4">
					<path class="st3" d="M369.04,351.57c0-1.01-0.82-1.82-1.82-1.82c-1.01,0-1.82,0.82-1.82,1.82c0,1.01,0.82,1.82,1.82,1.82
						C368.22,353.4,369.04,352.58,369.04,351.57z"/>
					<circle class="st3" cx="327.33" cy="392.5" r="2.61"/>
					<circle class="st3" cx="362.02" cy="278.1" r="4.69"/>
					<circle class="st3" cx="480.59" cy="276.45" r="4.69"/>
					<circle class="st3" cx="410.72" cy="234.8" r="2.09"/>
					<path class="st3" d="M525.97,388.59c0-1.87-1.52-3.39-3.39-3.39c-1.87,0-3.39,1.52-3.39,3.39c0,1.87,1.52,3.39,3.39,3.39
						C524.45,391.98,525.97,390.46,525.97,388.59z"/>
					<circle class="st3" cx="485.3" cy="346.62" r="1.3"/>
				</g>
			</g>
			<polygon class="st2" points="519.24,478.18 332.21,478.18 357.52,439.68 493.94,439.68 			"/>
			<g>
				<g>
					<g>
						<path class="st19" d="M366.88,324.39c6.98,14.65,20.44,45.43,27.44,50.59c8.6,6.34,25.22,8.21,25.22,8.21
							c-25.44,35.04-37.41,26.29-37.41,26.29c-17.14-13.25-25.03-69.94-26.45-80.05l-8.56-10.23c0,0-3.04-3.15-3.74-7.16
							c-0.7-4.01-1.4-7.51-0.56-7.35c0.84,0.16,3.05,5.49,3.4,6.49c0.34,1,1.53,2.83,2.03,3.16c0.5,0.33-3.26-9.67-3.44-12.01
							c-0.19-2.34-1.05-5.84-0.22-5.85c0.84-0.01,2.87,3.99,2.87,3.99s-0.71-4.84,0.13-5.02c0.83-0.17,2.03,2.99,2.38,4.49
							c0.35,1.5,4.09,9.66,5.1,9.99c0,0,1.19-8.12,1.84-9.29c0.66-1.18,6.61,0.86,6.78,1.53c0.17,0.67-2.66,1.86-3.83,1.7
							l-0.79,5.36c0,0,2.71,4.16,4.71,3.81c0,0,1.63-4.61,1.55-5.11c-0.09-0.5-2.78-2.15-1.72-5.25c1.06-3.1,6.18,8.98,6.18,8.98
							S366.47,319.96,366.88,324.39z"/>
						<g>
							<g>
								<g>
									<path class="st20" d="M347.02,300.05c1.12,4.59,3.04,8.95,5.67,12.88c0.2,0.3,0.69,0.02,0.49-0.29
										c-2.6-3.89-4.5-8.2-5.61-12.74C347.48,299.55,346.93,299.7,347.02,300.05L347.02,300.05z"/>
								</g>
							</g>
							<g>
								<g>
									<path class="st20" d="M362.77,313.13c-0.58-0.04-1.22-0.03-1.75,0.24c-0.61,0.31-0.79,0.92-0.79,1.57
										c-0.01,1.76,0.23,3.53,0.67,5.23c0.09,0.35,0.64,0.2,0.55-0.15c-0.37-1.45-0.59-2.94-0.64-4.44
										c-0.02-0.58-0.14-1.37,0.47-1.69c0.45-0.24,1.01-0.21,1.5-0.18C363.13,313.72,363.13,313.16,362.77,313.13L362.77,313.13z"
										/>
								</g>
							</g>
							<g>
								<g>
									<path class="st20" d="M350.97,317.03c1.27-1.63,2.54-3.25,3.8-4.88c0.22-0.28-0.18-0.69-0.4-0.4
										c-1.27,1.63-2.54,3.25-3.8,4.88C350.35,316.92,350.75,317.32,350.97,317.03L350.97,317.03z"/>
								</g>
							</g>
						</g>
					</g>
					<g>
						<path class="st2" d="M411.2,317.58c0,0-17.95,3.47-26.96,44.44l13.55,21.62L411.2,317.58z"/>
						<path class="st17" d="M408.75,318.51c0.48,1.2,0.37,2.63-0.77,3.85c-3.8,4.05-6.11,9.05-8.32,14.09
							c-2.26,5.15-4.42,10.32-6.31,15.62c-1.92,5.37-3.6,10.81-5.11,16.31l9.57,15.26l13.4-66.06
							C411.2,317.58,410.28,317.76,408.75,318.51z"/>
						<g>
							<g>
								<g>
									<path class="st2" d="M464.33,423.87c0,0,0.66-65.79-3.09-85.63c-3.76-19.84-24.56-25.13-24.56-25.13l-7.37-3.08L414,314.94
										l-5.38,3.69c-4.48,3.2-6.87,12.08-7.76,17.25l-9.75,87.93L464.33,423.87z"/>
									<path class="st17" d="M461.23,338.24c-2.92-15.39-16.08-22.02-21.84-24.22c-2.3,9.54-6.24,18.59-9.35,27.91
										c-3.85,11.54-7.32,23.2-10.76,34.86c-4.2,14.24-10.3,32.1-14.8,46.24l60.18,0.17C464.66,423.2,464.99,358.08,461.23,338.24
										z"/>
									<g>
										<path class="st19" d="M412.25,307.39l-0.09-1.86l0.61-0.04l11.69-11.5c0,0,1.97,1.19,2.24,1.65
											c0.27,0.46,1.25-0.32,1.25-0.32l3.05,15.07c0,0-12.03,10.26-16.65,9.75c-1.73-0.19-1.92-0.56-1.92-0.56L412.25,307.39z"/>
										<path class="st20" d="M424.76,293.36l-12.66,12.4l0.23,3.83c0,0,6.73-4.93,9.45-13.88"/>
									</g>
								</g>
								<g>
									<path class="st21" d="M428.39,290.09c0,0-4.13,0.4-5.44,2.37l-5.72-10.3c0,0-2.02-7.71-4.28-5.79
										c-2.27,1.92-4.22,3.11-5.8,2.61c-1.58-0.5-3.02-2.92-3.02-2.92s-11.07-10.29-4.03-18.15c7.7-8.59,8.38-1.93,13.77-0.02
										c2.08,0.74,6.11-0.52,8.29,0.09c2.32,0.65,2.4,5.99,3.81,5.99c7.89-0.02,6.97,11,3.22,25.95"/>
									<path class="st21" d="M424.1,282.51c-1.61,0.78-3.02,1.85-3.97,3.49c-0.13,0.23-0.28,0.43-0.43,0.61l3.25,5.85
										c1.31-1.98,5.44-2.37,5.44-2.37l0.79-0.17c0.58-2.32,1.11-4.43,1.56-6.36C428.62,282.74,426.42,282.28,424.1,282.51z"/>
									<path class="st19" d="M424.64,290.49c0.17,0.37,4.59-2.85,5.53,0.9c1.28,5.09-4.57,4.76-4.97,5.48
										c-0.82,1.46-0.06,2.48-4.25,4.56c-2.55,1.27-9.65,6.75-12.67,4.27c-3.02-2.48-3.98-2.04-4.46-30.45c0,0,2.54-2.4,4.06-1.11
										c2.84,2.42,3.85,2.01,4.52,1.11c0.95-1.26,2.77-1.47,4.02-0.51C423.53,280.17,423.72,288.49,424.64,290.49z"/>
									<g>
										<path class="st20" d="M429.36,291.54c0,0-2.21-1.56-3.04,1.17"/>
										<path class="st20" d="M407.58,285.93l0.94,9.87l-2.09-0.15C406.57,295.66,407.58,285.93,407.58,285.93z"/>
										<path d="M412.94,285.44c-1.88-0.68-3.5-0.18-3.5-0.18c0.1-0.97,1.09-1.66,2.22-1.55c0.42,0.04,1.01,0.31,1.31,0.79
											C413.09,284.7,413.33,285.54,412.94,285.44z"/>
										<path d="M405.26,285.84c-2,0.04-2.52,0.63-2.52,0.63c0.14-0.77,0.22-1.21,0.69-1.78c0.27-0.33,1.06-0.08,1.51,0.26
											C405.13,285.09,405.65,285.8,405.26,285.84z"/>
										<g>
											<path class="st22" d="M409.46,290.06c1.05,1.08,2.33,0.89,2.9-0.16"/>
											<path class="st22" d="M404.2,290.5c0.54,1.11,1.85,0.77,2.04-0.15"/>
										</g>
									</g>
									<path class="st22" d="M410.37,296.25c0,0-0.71,1.72-2.95,1.14"/>
								</g>
							</g>
						</g>
					</g>
					<g>
						<path class="st19" d="M486,322.39c-6.73,14.77-16.72,34.74-21.15,44.14c0.33-0.5-0.38-5.85-0.23-7.02
							c-10.97,7.11-23.96,12.74-23.96,12.74c2.84,19.37,13.72,31.76,19.87,34.62c7.9,3.68,11.64,0.85,11.64,0.85
							c16.92-13.53,23.86-70.35,25.11-80.48l8.39-10.37c0,0,2.98-3.2,3.62-7.22s1.27-7.53,0.44-7.36c-0.83,0.17-2.96,5.54-3.29,6.55
							s-1.48,2.85-1.98,3.19c-0.5,0.34,3.1-9.72,3.24-12.06c0.15-2.34,0.95-5.86,0.12-5.85c-0.84,0.01-2.81,4.04-2.81,4.04
							s0.63-4.85-0.21-5.01c-0.84-0.16-1.98,3.03-2.3,4.53c-0.32,1.51-3.93,9.73-4.93,10.07c0,0-1.32-8.1-2-9.26
							c-0.68-1.16-6.59,0.97-6.76,1.64c-0.16,0.67,2.69,1.82,3.86,1.64l0.88,5.34c0,0-2.64,4.2-4.65,3.88c0,0-1.71-4.58-1.63-5.08
							c0.08-0.5,2.74-2.2,1.63-5.28c-1.11-3.08-6.03,9.08-6.03,9.08S486.34,317.96,486,322.39z"/>
						<g>
							<g>
								<g>
									<path class="st20" d="M504.91,297.58c-1.03,4.56-2.86,8.9-5.4,12.84c-0.2,0.31,0.29,0.59,0.49,0.29
										c2.56-3.97,4.41-8.36,5.45-12.97C505.54,297.38,504.99,297.23,504.91,297.58L504.91,297.58z"/>
								</g>
							</g>
							<g>
								<g>
									<path class="st20" d="M489.93,311.63c0.48-0.04,1.02-0.07,1.47,0.13c0.65,0.3,0.54,1.1,0.53,1.7
										c-0.02,1.5-0.21,2.99-0.56,4.45c-0.08,0.35,0.46,0.5,0.55,0.15c0.41-1.71,0.62-3.48,0.58-5.24
										c-0.02-0.65-0.2-1.25-0.81-1.55c-0.54-0.27-1.17-0.26-1.76-0.21C489.57,311.1,489.57,311.66,489.93,311.63L489.93,311.63z"
										/>
								</g>
							</g>
							<g>
								<g>
									<path class="st20" d="M502.19,314.37c-1.29-1.61-2.59-3.21-3.88-4.82c-0.23-0.28-0.63,0.12-0.4,0.4
										c1.29,1.61,2.59,3.21,3.88,4.82C502.01,315.05,502.41,314.65,502.19,314.37L502.19,314.37z"/>
								</g>
							</g>
						</g>
					</g>
					<g>
						<path class="st19" d="M476.74,440.34l5.15,4.45c2.59,1.18,4.47,3.64,5.4,5.97l14.09,6.23c4.36,1.97,7.44,7.56,4.07,7.32
							l-41.8-1.32L476.74,440.34z"/>
						<path class="st23" d="M473.61,464.32l11.79-26.38c0,0-129.06-52.07-138.71-9.07C339.45,461.09,401.91,463.25,473.61,464.32z"
							/>
						<path class="st24" d="M385.41,461.97l-4.21-24.04c0,0,107.46-56.92,117.82-14.09C506.8,455.95,457.08,459.71,385.41,461.97z"
							/>
						<path class="st19" d="M381.89,440.61l-10.02,1.09c-1.5,0.85-2.75,2.08-3.61,3.57c-1.42,2.48-3.61,5.83-5.6,7.16
							c-6.21,4.14-18.51,7.7-18.51,7.7c-2.8,0.99-4.21,6.03-1.01,5.75l42.93-3.9L381.89,440.61z"/>
					</g>
					<path class="st2" d="M438.68,374.61l30.45-16.97c0,0-8.73-44.22-27.27-42.9C423.31,316.06,438.68,374.61,438.68,374.61z"/>
				</g>
			</g>
			<g>
				<path class="st5" d="M462.06,305.72c5.13,0.11,9.38-3.97,9.49-9.11c0.11-5.13-3.97-9.38-9.11-9.49
					c-5.13-0.11-9.38,3.97-9.49,9.11C452.85,301.37,456.93,305.61,462.06,305.72z"/>
				<path class="st5" d="M455.18,288.84c-3.68-1.73-3.48,0.29-3.33,1.33c0.07,0.46,0.34,0.86,0.61,1.23
					c3.84,5.23,9.77,8.49,15.74,11.03c1.45,0.62,3.11,1.2,4.55,0.57c0.3-0.13,0.59-0.32,0.75-0.6c0.47-0.82-0.32-1.77-1.03-2.39"/>
			</g>
			<g>
				<path class="st6" d="M341.96,338.74c0.08-4.05-3.13-7.4-7.18-7.49c-4.05-0.08-7.4,3.13-7.49,7.18c-0.08,4.05,3.13,7.4,7.18,7.49
					C338.53,346,341.88,342.79,341.96,338.74z"/>
				<path class="st6" d="M328.64,344.17c-1.36,2.91,0.23,2.75,1.05,2.62c0.36-0.05,0.68-0.27,0.97-0.48
					c4.12-3.03,6.7-7.71,8.7-12.42c0.49-1.14,0.95-2.45,0.45-3.59c-0.1-0.24-0.25-0.46-0.47-0.59c-0.65-0.37-1.4,0.25-1.88,0.82"/>
			</g>
		</g>
	</g>
</g>
<g>
	<g>
		<path class="st2" d="M164.68,108.44c-1.92,0-3.45-0.58-4.57-1.73c-1.13-1.15-1.69-2.64-1.69-4.46c0-1.82,0.56-3.3,1.69-4.43
			c1.13-1.13,2.65-1.69,4.57-1.69c1.92,0,3.42,0.56,4.5,1.69c1.08,1.13,1.62,2.6,1.62,4.43c0,1.82-0.54,3.31-1.62,4.46
			S166.6,108.44,164.68,108.44z M164.68,145.37c-2.11,0-3.72-0.65-4.82-1.94c-1.1-1.3-1.54-3-1.3-5.11l2.38-22.25
			c0.14-1.3,0.53-2.28,1.15-2.95c0.62-0.67,1.49-1.01,2.59-1.01c1.01,0,1.84,0.34,2.48,1.01c0.65,0.67,1.04,1.66,1.19,2.95
			l2.16,22.25c0.24,2.11-0.14,3.82-1.15,5.11C168.35,144.73,166.79,145.37,164.68,145.37z"/>
		<path class="st2" d="M204.21,132.56c-5.71,0-10.54-1.07-14.47-3.2c-3.94-2.14-6.95-5.15-9.04-9.04s-3.13-8.45-3.13-13.68
			c0-4.03,0.61-7.66,1.84-10.87c1.22-3.22,2.99-5.99,5.29-8.32c2.3-2.33,5.14-4.09,8.5-5.29c3.36-1.2,7.15-1.8,11.38-1.8
			c2.59,0,5.18,0.26,7.78,0.79c2.59,0.53,5.09,1.49,7.49,2.88c1.01,0.62,1.69,1.38,2.05,2.27c0.36,0.89,0.46,1.81,0.29,2.77
			c-0.17,0.96-0.55,1.81-1.15,2.56c-0.6,0.74-1.37,1.24-2.3,1.48c-0.94,0.24-2,0.05-3.2-0.58c-1.58-0.86-3.28-1.51-5.08-1.94
			c-1.8-0.43-3.73-0.65-5.8-0.65c-3.41,0-6.25,0.65-8.53,1.94c-2.28,1.3-4,3.18-5.15,5.65c-1.15,2.47-1.73,5.51-1.73,9.11
			c0,5.42,1.31,9.53,3.92,12.31c2.62,2.78,6.49,4.18,11.63,4.18c1.68,0,3.44-0.18,5.29-0.54c1.85-0.36,3.66-0.83,5.44-1.4
			l-2.09,4.61v-13.9h-6.48c-1.44,0-2.54-0.36-3.31-1.08c-0.77-0.72-1.15-1.73-1.15-3.02c0-1.25,0.38-2.22,1.15-2.92
			c0.77-0.7,1.87-1.04,3.31-1.04h11.23c1.44,0,2.54,0.38,3.31,1.15c0.77,0.77,1.15,1.85,1.15,3.24V125c0,1.3-0.25,2.36-0.76,3.2
			c-0.5,0.84-1.31,1.45-2.41,1.84c-2.16,0.77-4.58,1.38-7.27,1.84C209.51,132.33,206.85,132.56,204.21,132.56z"/>
		<path class="st2" d="M237.18,132.41c-1.83,0-3.22-0.47-4.18-1.4c-0.96-0.94-1.44-2.29-1.44-4.07v-25.56c0-1.78,0.47-3.13,1.4-4.07
			c0.94-0.94,2.27-1.4,4-1.4c1.68,0,2.98,0.47,3.89,1.4c0.91,0.94,1.37,2.29,1.37,4.07v3.74h-0.72c0.53-2.88,1.79-5.11,3.78-6.7
			c1.99-1.58,4.57-2.47,7.74-2.66c1.15-0.1,2.05,0.2,2.7,0.9c0.65,0.7,1.02,1.86,1.12,3.49c0.05,1.44-0.28,2.59-0.97,3.46
			c-0.7,0.86-1.86,1.39-3.49,1.58l-1.66,0.14c-2.74,0.24-4.76,1.03-6.08,2.38c-1.32,1.34-1.98,3.29-1.98,5.83v13.39
			c0,1.78-0.46,3.13-1.37,4.07C240.37,131.95,239,132.41,237.18,132.41z"/>
		<path class="st2" d="M273.25,132.56c-2.69,0-5.04-0.49-7.06-1.48c-2.02-0.98-3.6-2.33-4.75-4.03c-1.15-1.7-1.73-3.66-1.73-5.87
			c0-2.59,0.67-4.63,2.02-6.12c1.34-1.49,3.52-2.57,6.52-3.24c3-0.67,7-1.01,11.99-1.01h3.82v5.62h-3.74c-2.5,0-4.48,0.13-5.94,0.4
			c-1.46,0.26-2.53,0.72-3.2,1.37c-0.67,0.65-1.01,1.5-1.01,2.56c0,1.3,0.47,2.38,1.4,3.24c0.94,0.86,2.27,1.3,4,1.3
			c1.39,0,2.64-0.31,3.74-0.94c1.1-0.62,1.97-1.49,2.59-2.59c0.62-1.1,0.94-2.42,0.94-3.96v-8.21c0-2.11-0.48-3.61-1.44-4.5
			c-0.96-0.89-2.62-1.33-4.97-1.33c-1.25,0-2.63,0.14-4.14,0.43c-1.51,0.29-3.18,0.82-5,1.58c-1.1,0.43-2.05,0.53-2.84,0.29
			c-0.79-0.24-1.4-0.71-1.84-1.4c-0.43-0.7-0.65-1.48-0.65-2.34c0-0.86,0.24-1.68,0.72-2.45c0.48-0.77,1.3-1.34,2.45-1.73
			c2.21-0.86,4.31-1.48,6.3-1.84c1.99-0.36,3.8-0.54,5.44-0.54c3.7,0,6.76,0.54,9.18,1.62c2.42,1.08,4.22,2.75,5.4,5
			c1.18,2.26,1.76,5.11,1.76,8.57v15.98c0,1.78-0.44,3.13-1.33,4.07c-0.89,0.94-2.12,1.4-3.71,1.4c-1.63,0-2.89-0.47-3.78-1.4
			c-0.89-0.94-1.33-2.29-1.33-4.07v-2.66l0.5,0.5c-0.29,1.58-0.9,2.95-1.84,4.1c-0.94,1.15-2.11,2.05-3.53,2.7
			C276.77,132.23,275.12,132.56,273.25,132.56z"/>
		<path class="st2" d="M318.54,132.56c-3.84,0-7.18-0.74-10.01-2.23c-2.83-1.49-5.03-3.62-6.59-6.41c-1.56-2.78-2.34-6.07-2.34-9.86
			c0-2.83,0.43-5.38,1.3-7.63c0.86-2.26,2.12-4.18,3.78-5.76c1.66-1.58,3.66-2.8,6.01-3.64c2.35-0.84,4.97-1.26,7.85-1.26
			c1.49,0,3.08,0.18,4.79,0.54c1.7,0.36,3.37,0.95,5,1.76c0.91,0.53,1.55,1.18,1.91,1.94c0.36,0.77,0.49,1.57,0.4,2.41
			c-0.1,0.84-0.4,1.58-0.9,2.23s-1.14,1.08-1.91,1.3c-0.77,0.22-1.63,0.08-2.59-0.4c-0.91-0.48-1.86-0.85-2.84-1.12
			c-0.98-0.26-1.91-0.4-2.77-0.4c-1.44,0-2.71,0.23-3.82,0.68c-1.11,0.46-2.03,1.1-2.77,1.94c-0.75,0.84-1.32,1.88-1.73,3.13
			c-0.41,1.25-0.61,2.66-0.61,4.25c0,3.17,0.78,5.68,2.34,7.52c1.56,1.85,3.75,2.77,6.59,2.77c0.86,0,1.78-0.12,2.74-0.36
			c0.96-0.24,1.92-0.62,2.88-1.15c0.96-0.48,1.81-0.6,2.56-0.36c0.74,0.24,1.37,0.68,1.87,1.33s0.78,1.39,0.83,2.23
			c0.05,0.84-0.11,1.64-0.47,2.41c-0.36,0.77-1,1.37-1.91,1.8c-1.58,0.86-3.2,1.46-4.86,1.8
			C321.6,132.39,320.03,132.56,318.54,132.56z"/>
		<path class="st2" d="M341.15,90.08c-1.97,0-3.48-0.48-4.54-1.44c-1.06-0.96-1.58-2.33-1.58-4.1c0-1.73,0.53-3.06,1.58-4
			c1.06-0.94,2.57-1.4,4.54-1.4c2.02,0,3.56,0.47,4.64,1.4s1.62,2.27,1.62,4c0,1.78-0.54,3.14-1.62,4.1
			C344.71,89.6,343.16,90.08,341.15,90.08z M341.15,132.41c-1.68,0-3-0.52-3.96-1.55c-0.96-1.03-1.44-2.48-1.44-4.36v-24.7
			c0-1.92,0.48-3.37,1.44-4.36c0.96-0.98,2.28-1.48,3.96-1.48c1.78,0,3.13,0.49,4.07,1.48c0.94,0.98,1.4,2.44,1.4,4.36v24.7
			c0,1.87-0.46,3.32-1.37,4.36C344.34,131.9,342.97,132.41,341.15,132.41z"/>
		<path class="st2" d="M367.07,132.56c-2.69,0-5.04-0.49-7.06-1.48c-2.02-0.98-3.6-2.33-4.75-4.03c-1.15-1.7-1.73-3.66-1.73-5.87
			c0-2.59,0.67-4.63,2.02-6.12c1.34-1.49,3.52-2.57,6.52-3.24c3-0.67,7-1.01,11.99-1.01h3.82v5.62h-3.74c-2.5,0-4.48,0.13-5.94,0.4
			c-1.46,0.26-2.53,0.72-3.2,1.37c-0.67,0.65-1.01,1.5-1.01,2.56c0,1.3,0.47,2.38,1.4,3.24c0.94,0.86,2.27,1.3,4,1.3
			c1.39,0,2.64-0.31,3.74-0.94c1.1-0.62,1.97-1.49,2.59-2.59c0.62-1.1,0.94-2.42,0.94-3.96v-8.21c0-2.11-0.48-3.61-1.44-4.5
			c-0.96-0.89-2.62-1.33-4.97-1.33c-1.25,0-2.63,0.14-4.14,0.43c-1.51,0.29-3.18,0.82-5,1.58c-1.1,0.43-2.05,0.53-2.84,0.29
			c-0.79-0.24-1.4-0.71-1.84-1.4c-0.43-0.7-0.65-1.48-0.65-2.34c0-0.86,0.24-1.68,0.72-2.45c0.48-0.77,1.3-1.34,2.45-1.73
			c2.21-0.86,4.31-1.48,6.3-1.84c1.99-0.36,3.8-0.54,5.44-0.54c3.7,0,6.76,0.54,9.18,1.62c2.42,1.08,4.22,2.75,5.4,5
			c1.18,2.26,1.76,5.11,1.76,8.57v15.98c0,1.78-0.44,3.13-1.33,4.07c-0.89,0.94-2.12,1.4-3.71,1.4c-1.63,0-2.89-0.47-3.78-1.4
			c-0.89-0.94-1.33-2.29-1.33-4.07v-2.66l0.5,0.5c-0.29,1.58-0.9,2.95-1.84,4.1c-0.94,1.15-2.11,2.05-3.53,2.7
			C370.58,132.23,368.94,132.56,367.07,132.56z"/>
		<path class="st2" d="M408.68,132.56c-2.06,0-4.22-0.18-6.48-0.54c-2.26-0.36-4.27-1-6.05-1.91c-1.01-0.48-1.72-1.09-2.12-1.84
			c-0.41-0.74-0.59-1.51-0.54-2.3s0.3-1.49,0.76-2.09c0.46-0.6,1.05-1.01,1.8-1.22c0.74-0.22,1.57-0.13,2.48,0.25
			c1.97,0.82,3.78,1.39,5.44,1.73c1.66,0.34,3.25,0.5,4.79,0.5c2.02,0,3.5-0.34,4.46-1.01c0.96-0.67,1.44-1.54,1.44-2.59
			c0-0.91-0.31-1.6-0.94-2.05c-0.62-0.46-1.54-0.8-2.74-1.04l-7.63-1.37c-2.93-0.58-5.2-1.68-6.8-3.31
			c-1.61-1.63-2.41-3.74-2.41-6.34c0-2.45,0.67-4.54,2.02-6.26s3.2-3.06,5.58-4s5.08-1.4,8.1-1.4c2.16,0,4.14,0.19,5.94,0.58
			c1.8,0.38,3.56,1.03,5.29,1.94c0.86,0.38,1.48,0.94,1.84,1.66c0.36,0.72,0.47,1.46,0.32,2.23c-0.14,0.77-0.44,1.45-0.9,2.05
			c-0.46,0.6-1.06,1.01-1.8,1.22c-0.74,0.22-1.62,0.11-2.63-0.32c-1.54-0.62-2.95-1.09-4.25-1.4c-1.3-0.31-2.5-0.47-3.6-0.47
			c-2.21,0-3.8,0.34-4.79,1.01c-0.98,0.67-1.48,1.54-1.48,2.59c0,0.82,0.29,1.5,0.86,2.05c0.58,0.55,1.44,0.92,2.59,1.12l7.63,1.3
			c3.07,0.58,5.42,1.64,7.06,3.2c1.63,1.56,2.45,3.66,2.45,6.3c0,3.74-1.43,6.64-4.28,8.68
			C417.24,131.54,413.43,132.56,408.68,132.56z"/>
		<path class="st2" d="M435.83,132.2c-1.92,0-3.44-0.56-4.57-1.69c-1.13-1.13-1.69-2.63-1.69-4.5c0-1.78,0.56-3.23,1.69-4.36
			c1.13-1.13,2.65-1.69,4.57-1.69s3.42,0.56,4.5,1.69c1.08,1.13,1.62,2.58,1.62,4.36c0,1.87-0.54,3.37-1.62,4.5
			C439.25,131.63,437.75,132.2,435.83,132.2z M435.83,116.21c-1.1,0-1.97-0.34-2.59-1.01c-0.62-0.67-1.01-1.63-1.15-2.88
			l-2.38-24.77c-0.24-2.11,0.19-3.82,1.3-5.11c1.1-1.3,2.71-1.94,4.82-1.94s3.68,0.65,4.72,1.94c1.03,1.3,1.43,3,1.19,5.11
			l-2.3,24.77c-0.14,1.25-0.53,2.21-1.15,2.88C437.65,115.88,436.83,116.21,435.83,116.21z"/>
	</g>
</g>
</svg>
